<?xml version="1.0" encoding="utf-8"?>
<!-- Generator: Adobe Illustrator 16.0.0, SVG Export Plug-In . SVG Version: 6.00 Build 0)  -->
<!DOCTYPE svg PUBLIC "-//W3C//DTD SVG 1.1//EN" "http://www.w3.org/Graphics/SVG/1.1/DTD/svg11.dtd">
<svg version="1.1" id="Capa_1" xmlns="http://www.w3.org/2000/svg" xmlns:xlink="http://www.w3.org/1999/xlink" x="0px" y="0px"
	 width="841.89px" height="510.24px" viewBox="0 0 841.89 510.24" enable-background="new 0 0 841.89 510.24" xml:space="preserve">
<g>
	<polygon fill-rule="evenodd" clip-rule="evenodd" fill="#162342" points="525.438,121.302 530.016,125.373 528.688,129.646 
		526.301,134.87 524.443,139.62 520,143.69 514.561,145.521 509.851,145.792 504.677,143.35 500.697,138.805 497.778,134.26 
		496.52,129.375 496.784,123.948 500.101,120.895 503.882,119.538 507.662,118.113 510.912,117.232 515.091,117.503 
		518.275,117.639 521.857,119.47 	"/>
	<path fill-rule="evenodd" clip-rule="evenodd" fill="#A6861A" d="M612.398,170.894v8.684l-0.796,7.937l-3.118,7.938l-3.846,7.191
		l-4.645,7.123l-5.438,5.563l-6.965,4.75l-6.235,3.188l-6.234,1.561l-6.966,0.814l-1.923,0.204v-12.347l5.041-2.985l5.439-2.374
		l6.168-3.936l5.439-3.188l4.643-4.749l3.914-5.563l1.525-6.309l0.797-7.938l-2.322-5.563l-3.117-5.563l-4.644-4.749l-4.643-4.003
		l-5.439-3.188l-6.234-2.375l-5.439-0.746l-1.128-0.204v-13.229l10.48,1.492l9.285,4.003l9.288,4.749l7.759,6.309l5.439,7.937
		L612.398,170.894z M566.232,225.844l-5.041,0.543l-6.965-0.747l-6.236-0.814l-6.233-2.375l-4.644-4.002l-3.848-4.749l-6.965-7.123
		l-3.913-7.938l-2.322-8.75l-2.321-7.938l1.526-7.123l2.321-6.309l2.321-6.377l2.388-6.376l3.848-4.75l3.914-4.749l5.372-4.749
		l6.235-4.002l10.082-1.561l10.082,0.814l0.398,0.068v13.229l-5.041-0.61l-6.235,2.375l-5.439,3.188l-5.372,3.188l-3.914,4.749
		l-3.848,4.75l-2.32,6.309l-0.797,7.19v7.938l3.117,3.935l3.848,4.003l3.914,3.934l3.846,4.003l4.645,3.121l4.644,2.374l3.913,1.628
		l4.643,1.561l0.398-0.204V225.844z"/>
	<polygon fill-rule="evenodd" clip-rule="evenodd" fill="#A6861A" points="510.912,208.206 510.912,216.55 507.861,223.808 
		502.82,230.05 496.717,235.273 488.559,236.292 481.461,233.171 475.359,229.033 472.308,222.792 472.308,214.447 474.298,208.206 
		477.35,203.049 483.45,197.826 490.615,197.826 498.707,198.844 504.811,201.964 	"/>
	<path fill-rule="evenodd" clip-rule="evenodd" fill="#162342" d="M407.635,252.777l5.373-37.109
		c1.128-7.733,2.057-13.703,2.72-17.909c0.729-4.139,1.791-9.905,3.183-17.232c-2.652,5.902-5.172,11.533-7.561,16.892
		c-2.389,5.427-5.041,11.058-8.025,17.029l-17.977,36.836h-14.659l-3.117-36.43c0-2.51-0.332-8.005-0.995-16.485
		c-0.663-8.479-0.929-14.451-0.929-17.842c-2.521,11.804-5.107,23.473-7.628,35.141l-8.688,37.109h-17.247l22.021-89.957h25.206
		l2.786,34.26c0,2.713,0.199,7.258,0.73,13.635c0.529,6.445,0.795,11.398,0.795,14.994h0.531c1.459-4.478,3.249-9.023,5.239-13.704
		c1.991-4.682,4.18-9.701,6.634-15.061l16.317-34.124h25.405l-11.874,89.957H407.635z"/>
	<path fill-rule="evenodd" clip-rule="evenodd" fill="#162342" d="M425.213,250.063c3.316,2.035,7.296,3.799,12.072,5.223
		c4.709,1.357,9.485,2.104,14.261,2.104c4.909,0,9.088-1.154,12.47-3.394c3.384-2.239,5.042-5.563,5.042-9.836
		c0-3.188-1.128-5.902-3.448-8.276c-2.322-2.375-6.568-5.224-12.67-8.548c-6.169-3.325-11.343-7.462-15.588-12.279
		c-4.246-4.884-6.368-10.651-6.368-17.436c0-11.193,4.179-20.147,12.604-26.933c8.356-6.784,18.771-10.175,31.241-10.175
		c5.904,0,10.945,0.542,15.256,1.627c4.313,1.086,7.96,2.375,10.945,4.003l-7.496,20.284c-2.255-1.221-5.24-2.374-8.821-3.392
		c-3.582-1.018-7.563-1.492-11.808-1.492c-5.306,0-9.485,1.084-12.47,3.392c-2.984,2.239-4.444,5.02-4.444,8.412
		c0,2.375,0.863,4.682,2.653,6.784c1.725,2.172,6.235,5.225,13.465,9.227c7.23,4.003,12.735,8.481,16.517,13.365
		c3.715,4.953,5.572,10.652,5.572,17.232c0,12.279-4.246,21.776-12.802,28.425c-8.557,6.647-19.369,9.973-32.369,9.973
		c-7.297,0-13.665-0.747-19.104-2.374c-5.505-1.561-9.618-3.461-12.603-5.768L425.213,250.063z"/>
	<g>
		<path fill-rule="evenodd" clip-rule="evenodd" fill="#00223F" d="M280.146,385.732l1.833-13.774
			c0.127-0.908,0.343-2.327,0.647-4.258c0.304-1.929,0.545-3.386,0.723-4.369c-1.357,2.752-2.716,5.492-4.073,8.22l-7.597,14.046
			l-2.369-0.018l-1.919-13.735c-0.257-1.968-0.456-3.613-0.598-4.938c-0.14-1.324-0.21-2.517-0.21-3.575
			c-0.152,0.529-0.475,1.879-0.966,4.049c-0.492,2.169-0.853,3.696-1.08,4.578l-3.497,13.772l-2.936,0.005l6.623-25.509h4.013
			l2.005,14.646c0.316,2.498,0.5,4.005,0.553,4.522s0.079,1.143,0.079,1.875c0.375-0.783,0.87-1.817,1.483-3.104
			c0.612-1.286,1.144-2.359,1.594-3.218l7.873-14.722h4.125l-3.256,25.509L280.146,385.732z"/>
		<path fill-rule="evenodd" clip-rule="evenodd" fill="#00223F" d="M300.322,385.735c0-0.555,0.032-1.161,0.096-1.817
			c0.063-0.655,0.169-1.627,0.321-2.913c-0.984,1.816-2.081,3.128-3.294,3.937c-1.21,0.807-2.51,1.21-3.896,1.21
			c-1.615,0-2.896-0.561-3.842-1.684s-1.42-2.58-1.42-4.371c0-3.406,1.16-6.44,3.483-9.103c2.32-2.662,5.374-3.992,9.159-3.992
			c0.857,0,1.715,0.057,2.572,0.17c0.858,0.113,1.641,0.284,2.348,0.51l-1.855,9.576c-0.278,1.438-0.474,2.902-0.588,4.391
			c-0.111,1.487-0.169,2.851-0.169,4.087H300.322z M302.322,369.763c-0.529-0.176-1.248-0.264-2.156-0.264
			c-2.318,0-4.337,1.021-6.051,3.066c-1.716,2.043-2.573,4.364-2.573,6.963c0,1.186,0.24,2.157,0.722,2.915
			c0.48,0.756,1.275,1.135,2.389,1.135c1.365,0,2.706-0.788,4.02-2.364c1.316-1.575,2.188-3.55,2.618-5.92L302.322,369.763z"/>
		<polygon fill-rule="evenodd" clip-rule="evenodd" fill="#00223F" points="307.842,385.739 312.912,358.861 316.069,358.864 
			312.905,375.717 314.605,373.859 321.058,367.409 324.964,367.417 316.979,374.948 322.43,385.735 318.993,385.731 
			314.568,376.723 312.285,378.778 310.961,385.735 		"/>
		<path fill-rule="evenodd" clip-rule="evenodd" fill="#00223F" d="M325.104,385.735l3.481-18.318l3.158,0.003l-3.482,18.318
			L325.104,385.735z M329.116,362.006c0-0.606,0.207-1.13,0.624-1.571c0.417-0.44,0.928-0.662,1.533-0.662
			c0.604,0,1.085,0.188,1.438,0.567s0.53,0.871,0.53,1.477c0,0.656-0.208,1.192-0.621,1.608c-0.414,0.416-0.947,0.625-1.6,0.625
			c-0.558,0-1.017-0.189-1.371-0.568C329.293,363.103,329.116,362.611,329.116,362.006z"/>
		<path fill-rule="evenodd" clip-rule="evenodd" fill="#00223F" d="M333.766,385.735l2.421-12.98
			c0.202-0.985,0.367-1.855,0.493-2.612c0.125-0.758,0.252-1.665,0.378-2.726h2.839l-0.493,3.596
			c1.817-2.675,4.113-4.011,6.889-4.011c1.235,0,2.315,0.403,3.236,1.21c0.921,0.809,1.381,2.094,1.381,3.86
			c0,0.833-0.113,1.817-0.34,2.953l-2.044,10.71l-3.122,0.004l2.022-10.602c0.025-0.201,0.07-0.529,0.134-0.983
			s0.095-0.908,0.095-1.363c0-1.008-0.221-1.79-0.661-2.346c-0.441-0.555-1.179-0.832-2.212-0.832c-1.21,0-2.451,0.668-3.724,2.006
			c-1.273,1.337-2.112,3.079-2.516,5.225l-1.657,8.888L333.766,385.735z"/>
		<path fill-rule="evenodd" clip-rule="evenodd" fill="#00223F" d="M354.117,389.898c1.236,0.808,2.851,1.211,4.845,1.211
			c1.665,0,3.053-0.492,4.163-1.476c1.109-0.984,1.918-2.662,2.422-5.034l0.604-2.762c-1.689,2.598-3.834,3.897-6.433,3.897
			c-1.767,0-3.142-0.612-4.126-1.835c-0.983-1.225-1.476-2.732-1.476-4.522c0-3.28,1.085-6.163,3.254-8.648
			c2.17-2.485,4.959-3.728,8.365-3.728c1.01,0,2.051,0.119,3.123,0.358c1.071,0.24,1.999,0.55,2.781,0.928l-2.839,15.14
			c-0.379,2.067-0.845,3.746-1.399,5.032c-0.556,1.287-1.287,2.321-2.195,3.104c-0.909,0.782-1.911,1.324-3.01,1.628
			c-1.098,0.303-2.252,0.454-3.463,0.454c-1.135,0-2.182-0.113-3.142-0.341c-0.958-0.228-1.74-0.543-2.347-0.946L354.117,389.898z
			 M368.211,370.145c-0.303-0.151-0.745-0.297-1.326-0.437c-0.58-0.14-1.148-0.209-1.705-0.209c-2.224,0-4.074,0.959-5.553,2.877
			c-1.479,1.917-2.217,4.074-2.217,6.472c0,1.235,0.266,2.276,0.799,3.122c0.531,0.845,1.444,1.269,2.738,1.269
			c1.317,0,2.578-0.712,3.782-2.137c1.204-1.424,1.984-3.042,2.339-4.857L368.211,370.145z"/>
		<path fill-rule="evenodd" clip-rule="evenodd" fill="#00223F" d="M388.694,363.018l-0.832,4.399h4.39l-0.492,2.461l-4.364,0.004
			l-1.69,8.928c-0.102,0.451-0.189,0.938-0.266,1.464c-0.075,0.526-0.113,1.001-0.113,1.427c0,1.176,0.58,1.764,1.74,1.764
			c0.606,0,1.098-0.036,1.476-0.113l-0.15,2.46c-0.581,0.228-1.388,0.341-2.422,0.341c-1.287,0-2.251-0.334-2.896-1.003
			c-0.644-0.668-0.965-1.52-0.965-2.555c0-0.454,0.037-0.984,0.111-1.59c0.076-0.605,0.176-1.223,0.3-1.854l1.831-9.263
			l-2.658-0.009l0.416-2.461l2.668,0.012l0.64-3.377L388.694,363.018z"/>
		<path fill-rule="evenodd" clip-rule="evenodd" fill="#00223F" d="M392.413,385.735l5.108-26.871l3.158,0.003l-2.275,11.77
			c0.831-1.161,1.809-2.058,2.93-2.688s2.351-0.946,3.687-0.946c1.235,0,2.3,0.391,3.194,1.173s1.342,2.031,1.342,3.747
			c0,1.084-0.101,2.106-0.303,3.065l-2.044,10.748l-3.157-0.003l2.053-10.596c0.052-0.327,0.104-0.712,0.156-1.153
			c0.052-0.441,0.077-0.901,0.077-1.382c0-0.908-0.226-1.634-0.681-2.176c-0.456-0.542-1.175-0.813-2.161-0.813
			c-1.263,0-2.532,0.662-3.81,1.986c-1.275,1.324-2.09,2.969-2.444,4.938l-1.709,9.194L392.413,385.735z"/>
		<path fill-rule="evenodd" clip-rule="evenodd" fill="#00223F" d="M412.613,385.735l3.482-18.318l3.157,0.003l-3.481,18.318
			L412.613,385.735z M416.625,362.006c0-0.606,0.208-1.13,0.624-1.571c0.417-0.44,0.927-0.662,1.533-0.662
			c0.605,0,1.085,0.188,1.438,0.567c0.353,0.379,0.529,0.871,0.529,1.477c0,0.656-0.207,1.192-0.621,1.608s-0.947,0.625-1.6,0.625
			c-0.558,0-1.016-0.189-1.371-0.568C416.802,363.103,416.625,362.611,416.625,362.006z"/>
		<path fill-rule="evenodd" clip-rule="evenodd" fill="#00223F" d="M421.274,385.735l2.422-12.98
			c0.201-0.985,0.366-1.855,0.491-2.612c0.127-0.758,0.253-1.665,0.379-2.726h2.84l-0.493,3.596
			c1.816-2.675,4.112-4.011,6.889-4.011c1.235,0,2.315,0.403,3.235,1.21c0.921,0.809,1.382,2.094,1.382,3.86
			c0,0.833-0.114,1.817-0.341,2.953l-2.044,10.71l-3.122,0.004l2.023-10.602c0.025-0.201,0.068-0.529,0.133-0.983
			s0.095-0.908,0.095-1.363c0-1.008-0.22-1.79-0.661-2.346c-0.44-0.555-1.178-0.832-2.211-0.832c-1.21,0-2.452,0.668-3.725,2.006
			c-1.272,1.337-2.112,3.079-2.516,5.225l-1.658,8.888L421.274,385.735z"/>
		<path fill-rule="evenodd" clip-rule="evenodd" fill="#00223F" d="M441.626,389.898c1.235,0.808,2.852,1.211,4.845,1.211
			c1.665,0,3.053-0.492,4.163-1.476c1.11-0.984,1.917-2.662,2.422-5.034l0.605-2.762c-1.69,2.598-3.834,3.897-6.434,3.897
			c-1.767,0-3.142-0.612-4.125-1.835c-0.984-1.225-1.477-2.732-1.477-4.522c0-3.28,1.085-6.163,3.255-8.648s4.958-3.728,8.364-3.728
			c1.01,0,2.051,0.119,3.123,0.358c1.071,0.24,2,0.55,2.781,0.928l-2.838,15.14c-0.379,2.067-0.846,3.746-1.399,5.032
			c-0.557,1.287-1.288,2.321-2.196,3.104c-0.909,0.782-1.911,1.324-3.009,1.628c-1.099,0.303-2.252,0.454-3.464,0.454
			c-1.135,0-2.183-0.113-3.141-0.341c-0.96-0.228-1.741-0.543-2.347-0.946L441.626,389.898z M455.721,370.145
			c-0.304-0.151-0.746-0.297-1.326-0.437c-0.581-0.14-1.15-0.209-1.705-0.209c-2.225,0-4.074,0.959-5.554,2.877
			c-1.478,1.917-2.217,4.074-2.217,6.472c0,1.235,0.267,2.276,0.799,3.122c0.532,0.845,1.444,1.269,2.738,1.269
			c1.317,0,2.579-0.712,3.783-2.137c1.204-1.424,1.983-3.042,2.339-4.857L455.721,370.145z"/>
		<path fill-rule="evenodd" clip-rule="evenodd" fill="#00223F" d="M461.427,382.594c0.454,0.277,1.047,0.536,1.779,0.776
			c0.732,0.239,1.451,0.358,2.157,0.358c1.034,0,1.873-0.283,2.518-0.852c0.644-0.567,0.964-1.279,0.964-2.138
			c0-0.757-0.176-1.375-0.529-1.854c-0.354-0.479-1.331-1.16-2.933-2.044c-1.604-0.883-2.404-2.271-2.404-4.163
			c0-1.64,0.625-2.995,1.875-4.067c1.248-1.073,2.844-1.608,4.787-1.608c0.807,0,1.538,0.081,2.194,0.245
			c0.655,0.164,1.187,0.385,1.59,0.663l-0.871,2.384c-0.403-0.253-0.864-0.454-1.381-0.605c-0.518-0.151-1.104-0.227-1.761-0.227
			c-0.957,0-1.746,0.257-2.365,0.774c-0.617,0.518-0.927,1.18-0.927,1.987c0,0.606,0.208,1.154,0.625,1.647
			c0.416,0.491,1.104,1.002,2.063,1.532c0.959,0.529,1.741,1.198,2.347,2.006s0.908,1.716,0.908,2.726
			c0,1.866-0.662,3.337-1.987,4.409c-1.325,1.071-2.995,1.607-5.015,1.607c-0.934,0-1.811-0.119-2.63-0.358
			c-0.82-0.241-1.457-0.537-1.911-0.891L461.427,382.594z"/>
		<path fill-rule="evenodd" clip-rule="evenodd" fill="#00223F" d="M482.237,385.735l5.108-26.871l3.158,0.003l-2.275,11.77
			c0.832-1.161,1.809-2.058,2.931-2.688c1.12-0.631,2.35-0.946,3.686-0.946c1.234,0,2.3,0.391,3.194,1.173
			c0.896,0.782,1.342,2.031,1.342,3.747c0,1.084-0.101,2.106-0.302,3.065l-2.045,10.748l-3.157-0.003l2.054-10.596
			c0.051-0.327,0.104-0.712,0.155-1.153c0.053-0.441,0.079-0.901,0.079-1.382c0-0.908-0.229-1.634-0.683-2.176
			s-1.175-0.813-2.16-0.813c-1.264,0-2.533,0.662-3.809,1.986c-1.276,1.324-2.092,2.969-2.445,4.938l-1.709,9.194L482.237,385.735z"
			/>
		<path fill-rule="evenodd" clip-rule="evenodd" fill="#00223F" d="M514.625,385.735c0-0.555,0.031-1.161,0.094-1.817
			c0.063-0.655,0.171-1.627,0.322-2.913c-0.983,1.816-2.082,3.128-3.293,3.937c-1.211,0.807-2.511,1.21-3.898,1.21
			c-1.615,0-2.895-0.561-3.842-1.684c-0.945-1.123-1.419-2.58-1.419-4.371c0-3.406,1.161-6.44,3.482-9.103
			c2.32-2.662,5.374-3.992,9.159-3.992c0.857,0,1.716,0.057,2.573,0.17s1.64,0.284,2.347,0.51l-1.854,9.576
			c-0.278,1.438-0.475,2.902-0.588,4.391c-0.113,1.487-0.17,2.851-0.17,4.087H514.625z M516.624,369.763
			c-0.529-0.176-1.248-0.264-2.155-0.264c-2.32,0-4.337,1.021-6.053,3.066c-1.715,2.043-2.572,4.364-2.572,6.963
			c0,1.186,0.24,2.157,0.721,2.915c0.48,0.756,1.277,1.135,2.39,1.135c1.365,0,2.705-0.788,4.021-2.364
			c1.314-1.575,2.187-3.55,2.616-5.92L516.624,369.763z"/>
		<path fill-rule="evenodd" clip-rule="evenodd" fill="#00223F" d="M520.531,393.229l3.671-19.303
			c0.404-2.194,0.746-4.377,1.022-6.547h2.877l-0.493,3.482c0.858-1.236,1.862-2.189,3.009-2.858
			c1.149-0.668,2.366-1.002,3.653-1.002c1.841,0,3.235,0.644,4.182,1.929c0.945,1.288,1.419,2.853,1.419,4.694
			c0,3.33-1.033,6.251-3.102,8.762c-2.067,2.51-4.602,3.765-7.603,3.765c-0.882,0-1.658-0.082-2.326-0.245
			c-0.669-0.164-1.204-0.358-1.607-0.585l-1.543,7.911L520.531,393.229z M525.662,382.667c0.885,0.683,2.06,1.025,3.525,1.025
			c1.996,0,3.733-1.022,5.211-3.066c1.479-2.043,2.219-4.302,2.219-6.774c0-1.16-0.271-2.157-0.813-2.989
			c-0.541-0.833-1.444-1.249-2.705-1.249c-1.31,0-2.603,0.719-3.876,2.157c-1.272,1.438-2.137,3.368-2.59,5.792L525.662,382.667z"/>
		<path fill-rule="evenodd" clip-rule="evenodd" fill="#00223F" d="M540.494,393.229l3.671-19.303
			c0.403-2.194,0.743-4.377,1.021-6.547h2.876l-0.49,3.482c0.857-1.236,1.859-2.189,3.009-2.858
			c1.146-0.668,2.365-1.002,3.651-1.002c1.842,0,3.236,0.644,4.182,1.929c0.947,1.288,1.42,2.853,1.42,4.694
			c0,3.33-1.034,6.251-3.102,8.762c-2.068,2.51-4.603,3.765-7.604,3.765c-0.883,0-1.657-0.082-2.325-0.245
			c-0.668-0.164-1.204-0.358-1.607-0.585l-1.544,7.911L540.494,393.229z M545.623,382.667c0.885,0.683,2.06,1.025,3.524,1.025
			c1.997,0,3.734-1.022,5.213-3.066c1.479-2.043,2.217-4.302,2.217-6.774c0-1.16-0.271-2.157-0.813-2.989
			c-0.542-0.833-1.443-1.249-2.703-1.249c-1.313,0-2.604,0.719-3.877,2.157s-2.138,3.368-2.592,5.792L545.623,382.667z"/>
		<path fill-rule="evenodd" clip-rule="evenodd" fill="#00223F" d="M575.291,384.713c-0.707,0.379-1.615,0.713-2.726,1.004
			c-1.11,0.29-2.221,0.435-3.331,0.435c-2.32,0-4.063-0.687-5.223-2.062s-1.74-3.147-1.74-5.318c0-2.952,0.958-5.652,2.876-8.099
			c1.917-2.448,4.288-3.671,7.115-3.671c1.689,0,3.008,0.449,3.955,1.349c0.945,0.898,1.419,2.03,1.419,3.397
			c0,2.229-1.079,3.779-3.236,4.653s-5.141,1.311-8.951,1.311c-0.024,0.301-0.037,0.589-0.037,0.865
			c0,1.053,0.163,1.949,0.489,2.688c0.327,0.74,0.836,1.316,1.528,1.729c0.69,0.414,1.525,0.621,2.505,0.621
			c1.006,0,1.886-0.107,2.64-0.322c0.754-0.214,1.509-0.522,2.263-0.927L575.291,384.713z M571.809,369.462
			c-1.413,0-2.662,0.577-3.748,1.732c-1.083,1.156-1.829,2.521-2.232,4.096c2.825,0,4.996-0.241,6.51-0.725
			c1.515-0.482,2.271-1.396,2.271-2.742c0-0.762-0.252-1.347-0.756-1.753C573.348,369.664,572.666,369.462,571.809,369.462z"/>
		<path fill-rule="evenodd" clip-rule="evenodd" fill="#00223F" d="M579.287,385.735l2.421-12.98
			c0.201-0.985,0.366-1.855,0.493-2.612c0.125-0.758,0.251-1.665,0.378-2.726h2.839l-0.493,3.596
			c1.817-2.675,4.113-4.011,6.889-4.011c1.235,0,2.315,0.403,3.236,1.21c0.921,0.809,1.381,2.094,1.381,3.86
			c0,0.833-0.114,1.817-0.341,2.953l-2.044,10.71l-3.122,0.004l2.023-10.602c0.025-0.201,0.07-0.529,0.133-0.983
			c0.064-0.454,0.095-0.908,0.095-1.363c0-1.008-0.22-1.79-0.661-2.346c-0.44-0.555-1.178-0.832-2.211-0.832
			c-1.21,0-2.452,0.668-3.725,2.006c-1.272,1.337-2.112,3.079-2.516,5.225l-1.657,8.888L579.287,385.735z"/>
	</g>
	<path fill="#A6861A" d="M138.068,335.443l3.533-26.795c0.244-1.767,0.66-4.526,1.247-8.281c0.585-3.754,1.05-6.588,1.392-8.503
		c-2.615,5.356-5.23,10.687-7.847,15.991L121.76,335.18l-4.564-0.035l-3.696-26.718c-0.494-3.828-0.877-7.029-1.148-9.605
		c-0.271-2.577-0.406-4.896-0.406-6.957c-0.292,1.031-0.913,3.657-1.86,7.878c-0.949,4.221-1.643,7.189-2.08,8.907l-6.736,26.791
		l-5.652,0.009l12.757-49.621h7.728l3.864,28.491c0.607,4.859,0.962,7.793,1.063,8.798c0.102,1.007,0.152,2.222,0.152,3.645
		c0.723-1.521,1.675-3.534,2.854-6.037c1.181-2.503,2.205-4.589,3.072-6.258l15.165-28.639h7.946l-6.27,49.621L138.068,335.443z"/>
	<path fill="#A6861A" d="M174.858,335.449c0-1.079,0.061-2.257,0.183-3.534c0.121-1.275,0.328-3.165,0.62-5.669
		c-1.896,3.534-4.01,6.087-6.343,7.657s-4.837,2.355-7.509,2.355c-3.111,0-5.577-1.092-7.4-3.276
		c-1.822-2.183-2.733-5.018-2.733-8.503c0-6.626,2.234-12.527,6.707-17.706c4.471-5.178,10.353-7.768,17.644-7.768
		c1.651,0,3.305,0.11,4.957,0.332c1.652,0.221,3.159,0.552,4.521,0.993l-3.572,18.627c-0.535,2.798-0.912,5.645-1.131,8.54
		c-0.219,2.896-0.328,5.547-0.328,7.951H174.858z M178.711,304.378c-1.021-0.342-2.404-0.513-4.152-0.513
		c-4.471,0-8.355,1.987-11.659,5.963c-3.304,3.977-4.954,8.492-4.954,13.547c0,2.308,0.463,4.196,1.388,5.669
		s2.459,2.209,4.603,2.209c2.631,0,5.212-1.532,7.745-4.6c2.532-3.065,4.213-6.904,5.041-11.516L178.711,304.378z"/>
	<path fill="#A6861A" d="M187.326,335.449l4.665-25.253c0.388-1.914,0.704-3.607,0.947-5.079c0.243-1.473,0.485-3.24,0.729-5.301
		h5.468l-0.948,6.994c3.5-5.202,7.922-7.805,13.269-7.805c2.381,0,4.459,0.786,6.233,2.356c1.773,1.571,2.661,4.074,2.661,7.509
		c0,1.62-0.219,3.534-0.656,5.743l-3.937,20.835l-6.014,0.007l3.896-20.621c0.048-0.393,0.134-1.03,0.257-1.914
		c0.122-0.884,0.184-1.767,0.184-2.65c0-1.963-0.426-3.484-1.275-4.564c-0.85-1.079-2.27-1.62-4.26-1.62
		c-2.331,0-4.723,1.301-7.175,3.903c-2.452,2.602-4.066,5.99-4.843,10.162l-3.194,17.29L187.326,335.449z"/>
	<path fill="#A6861A" d="M247.469,335.449c0-1.079,0.061-2.257,0.183-3.534c0.121-1.275,0.328-3.165,0.62-5.669
		c-1.896,3.534-4.01,6.087-6.343,7.657s-4.837,2.355-7.509,2.355c-3.111,0-5.577-1.092-7.4-3.276
		c-1.822-2.183-2.733-5.018-2.733-8.503c0-6.626,2.234-12.527,6.707-17.706c4.471-5.178,10.353-7.768,17.644-7.768
		c1.651,0,3.305,0.11,4.957,0.332c1.652,0.221,3.159,0.552,4.521,0.993l-3.572,18.627c-0.535,2.798-0.912,5.645-1.131,8.54
		c-0.219,2.896-0.328,5.547-0.328,7.951H247.469z M251.321,304.378c-1.021-0.342-2.404-0.513-4.152-0.513
		c-4.471,0-8.355,1.987-11.659,5.963c-3.304,3.977-4.954,8.492-4.954,13.547c0,2.308,0.463,4.196,1.388,5.669
		s2.459,2.209,4.603,2.209c2.631,0,5.212-1.532,7.745-4.6c2.532-3.065,4.213-6.904,5.041-11.516L251.321,304.378z"/>
	<path fill="#A6861A" d="M260.228,343.548c2.38,1.57,5.491,2.355,9.331,2.355c3.208,0,5.88-0.957,8.02-2.871
		c2.138-1.914,3.693-5.179,4.666-9.792l1.166-5.374c-3.257,5.056-7.388,7.583-12.394,7.583c-3.402,0-6.051-1.189-7.946-3.57
		s-2.843-5.313-2.843-8.798c0-6.38,2.089-11.988,6.27-16.823c4.179-4.834,9.55-7.252,16.112-7.252c1.943,0,3.948,0.233,6.015,0.699
		c2.065,0.468,3.852,1.068,5.358,1.804l-5.468,29.449c-0.729,4.025-1.629,7.289-2.697,9.792c-1.069,2.503-2.479,4.516-4.229,6.037
		c-1.75,1.521-3.683,2.577-5.797,3.166s-4.338,0.883-6.671,0.883c-2.187,0-4.204-0.221-6.051-0.662
		c-1.848-0.441-3.354-1.056-4.52-1.841L260.228,343.548z M287.377,305.122c-0.585-0.295-1.437-0.578-2.556-0.85
		s-2.214-0.407-3.285-0.407c-4.283,0-7.849,1.866-10.696,5.596c-2.848,3.73-4.271,7.927-4.271,12.589
		c0,2.405,0.513,4.43,1.538,6.074s2.784,2.466,5.274,2.466c2.539,0,4.969-1.384,7.288-4.153c2.319-2.771,3.821-5.92,4.505-9.45
		L287.377,305.122z"/>
	<path fill="#A6861A" d="M321.318,333.461c-1.361,0.736-3.11,1.388-5.249,1.951c-2.139,0.564-4.277,0.847-6.415,0.847
		c-4.473,0-7.826-1.337-10.061-4.012c-2.236-2.675-3.354-6.123-3.354-10.345c0-5.742,1.846-10.993,5.54-15.755
		c3.693-4.76,8.262-7.142,13.706-7.142c3.256,0,5.796,0.875,7.618,2.623s2.734,3.952,2.734,6.612c0,4.334-2.078,7.352-6.233,9.051
		c-4.155,1.7-9.903,2.549-17.242,2.549c-0.049,0.586-0.072,1.147-0.072,1.684c0,2.049,0.314,3.793,0.943,5.23
		c0.628,1.438,1.609,2.56,2.94,3.365c1.331,0.805,2.94,1.206,4.829,1.206c1.937,0,3.63-0.208,5.083-0.626
		c1.452-0.416,2.904-1.018,4.356-1.804L321.318,333.461z M314.611,303.792c-2.723,0-5.128,1.123-7.218,3.371
		s-3.524,4.904-4.301,7.967c5.442,0,9.623-0.47,12.539-1.408c2.916-0.939,4.374-2.718,4.374-5.336c0-1.481-0.486-2.618-1.458-3.408
		C317.575,304.188,316.263,303.792,314.611,303.792z"/>
	<path fill="#A6861A" d="M326.712,335.449l4.74-25.253c0.631-3.582,1.166-7.042,1.604-10.38h5.322l-0.948,6.699
		c1.701-2.454,3.646-4.318,5.832-5.596c2.188-1.275,4.447-1.914,6.78-1.914c2.625,0,4.653,0.749,6.088,2.246
		c1.433,1.497,2.15,3.398,2.15,5.705c3.208-5.301,7.509-7.951,12.904-7.951c2.332,0,4.349,0.773,6.051,2.319
		c1.7,1.546,2.552,3.891,2.552,7.031c0,1.914-0.195,3.927-0.584,6.037l-3.937,21.056l-5.863,0.008l3.769-20.545
		c0.376-1.571,0.563-3.117,0.563-4.64c0-2.013-0.415-3.546-1.247-4.603c-0.831-1.056-2.202-1.584-4.108-1.584
		c-2.348,0-4.61,1.215-6.787,3.644c-2.177,2.428-3.632,5.58-4.365,9.456l-3.361,18.256l-5.792,0.008l3.937-20.909
		c0.291-1.619,0.438-3.066,0.438-4.344c0-1.814-0.365-3.287-1.092-4.417c-0.728-1.129-2.11-1.693-4.147-1.693
		c-2.231,0-4.499,1.326-6.804,3.979c-2.305,2.651-3.796,5.818-4.475,9.5l-3.283,17.891L326.712,335.449z"/>
	<path fill="#A6861A" d="M408.874,333.461c-1.361,0.736-3.11,1.388-5.249,1.951c-2.139,0.564-4.277,0.847-6.415,0.847
		c-4.473,0-7.826-1.337-10.061-4.012c-2.236-2.675-3.354-6.123-3.354-10.345c0-5.742,1.846-10.993,5.54-15.755
		c3.693-4.76,8.262-7.142,13.706-7.142c3.256,0,5.796,0.875,7.618,2.623s2.734,3.952,2.734,6.612c0,4.334-2.078,7.352-6.233,9.051
		c-4.155,1.7-9.903,2.549-17.242,2.549c-0.049,0.586-0.072,1.147-0.072,1.684c0,2.049,0.314,3.793,0.943,5.23
		c0.628,1.438,1.609,2.56,2.94,3.365c1.331,0.805,2.94,1.206,4.829,1.206c1.937,0,3.63-0.208,5.083-0.626
		c1.452-0.416,2.904-1.018,4.356-1.804L408.874,333.461z M402.167,303.792c-2.723,0-5.128,1.123-7.218,3.371
		s-3.524,4.904-4.301,7.967c5.442,0,9.623-0.47,12.539-1.408c2.916-0.939,4.374-2.718,4.374-5.336c0-1.481-0.486-2.618-1.458-3.408
		C405.131,304.188,403.818,303.792,402.167,303.792z"/>
	<path fill="#A6861A" d="M414.342,335.449l4.665-25.253c0.388-1.914,0.704-3.607,0.947-5.079c0.243-1.473,0.485-3.24,0.729-5.301
		h5.468l-0.948,6.994c3.5-5.202,7.922-7.805,13.269-7.805c2.381,0,4.459,0.786,6.233,2.356c1.773,1.571,2.661,4.074,2.661,7.509
		c0,1.62-0.219,3.534-0.656,5.743l-3.937,20.835l-6.014,0.007l3.896-20.621c0.048-0.393,0.134-1.03,0.257-1.914
		c0.122-0.884,0.184-1.767,0.184-2.65c0-1.963-0.426-3.484-1.275-4.564c-0.85-1.079-2.27-1.62-4.26-1.62
		c-2.331,0-4.723,1.301-7.175,3.903c-2.452,2.602-4.066,5.99-4.843,10.162l-3.194,17.29L414.342,335.449z"/>
	<path fill="#A6861A" d="M466.611,291.258l-1.604,8.559h8.458l-0.947,4.785l-8.409,0.009l-3.256,17.366
		c-0.194,0.876-0.364,1.826-0.51,2.848c-0.146,1.023-0.219,1.948-0.219,2.775c0,2.289,1.117,3.433,3.353,3.433
		c1.166,0,2.114-0.074,2.843-0.222l-0.291,4.786c-1.119,0.441-2.674,0.662-4.666,0.662c-2.479,0-4.337-0.65-5.576-1.951
		c-1.239-1.3-1.859-2.957-1.859-4.97c0-0.884,0.072-1.915,0.217-3.093c0.144-1.178,0.336-2.38,0.576-3.607l3.527-18.019
		l-5.122-0.018l0.802-4.785l5.142,0.021l1.232-6.567L466.611,291.258z"/>
	<path fill="#162342" d="M473.173,325.688c1.458,0.904,3.231,1.671,5.322,2.299c2.089,0.628,4.179,0.94,6.27,0.94
		c2.187,0,4.021-0.491,5.504-1.475c1.482-0.982,2.224-2.408,2.224-4.278c0-1.375-0.511-2.58-1.531-3.613
		c-1.021-1.032-2.88-2.273-5.577-3.725c-2.697-1.449-4.982-3.232-6.853-5.347c-1.872-2.114-2.807-4.646-2.807-7.596
		c0-4.868,1.847-8.777,5.54-11.727s8.286-4.426,13.779-4.426c2.575,0,4.812,0.231,6.707,0.694c1.896,0.462,3.499,1.035,4.812,1.716
		l-3.28,8.854c-1.021-0.558-2.322-1.065-3.9-1.523c-1.58-0.456-3.317-0.686-5.213-0.686c-2.333,0-4.155,0.492-5.468,1.475
		c-1.313,0.983-1.969,2.214-1.969,3.688c0,1.033,0.389,2.016,1.167,2.949c0.776,0.935,2.758,2.274,5.941,4.02
		c3.183,1.746,5.602,3.688,7.254,5.826c1.651,2.14,2.479,4.635,2.479,7.486c0,5.36-1.884,9.489-5.649,12.391
		c-3.768,2.901-8.519,4.351-14.253,4.351c-3.208,0-6.015-0.342-8.42-1.021c-2.406-0.681-4.266-1.509-5.577-2.483L473.173,325.688z"
		/>
	<path fill="#162342" d="M506.635,323.112c0-6.38,1.98-11.768,5.941-16.16s9.077-6.59,15.347-6.59c4.666,0,8.358,1.425,11.081,4.271
		c2.722,2.847,4.083,6.381,4.083,10.602c0,6.578-2.005,12.013-6.015,16.308s-9.076,6.441-15.2,6.441
		c-4.618,0-8.312-1.349-11.082-4.049C508.021,331.235,506.635,327.628,506.635,323.112z M532.151,315.308
		c0-1.914-0.45-3.533-1.349-4.858c-0.9-1.325-2.322-1.988-4.265-1.988c-2.771,0-4.983,1.559-6.635,4.675
		c-1.652,3.118-2.479,6.369-2.479,9.755c0,2.161,0.498,3.865,1.494,5.117s2.394,1.877,4.192,1.877c2.672,0,4.848-1.558,6.524-4.675
		C531.313,322.094,532.151,318.794,532.151,315.308z"/>
	<path fill="#162342" d="M544.106,337.174l9.915-52.271h10.498l-9.915,52.271H544.106z"/>
	<path fill="#162342" d="M599.95,301.173l-4.52,24.295c-0.244,1.228-0.475,2.503-0.693,3.828c-0.218,1.325-0.645,3.952-1.275,7.878
		h-9.259l0.656-5.816c-1.799,2.209-3.767,3.865-5.905,4.97s-4.301,1.656-6.488,1.656c-6.124,0-9.186-3.361-9.186-10.086
		c0-2.012,0.242-4.221,0.729-6.626l3.791-20.099h10.498l-3.645,19.289c-0.341,1.914-0.511,3.51-0.511,4.785
		c0,1.228,0.279,2.222,0.839,2.981c0.558,0.762,1.469,1.142,2.733,1.142c1.896,0,3.646-1.031,5.249-3.093s2.722-4.858,3.354-8.393
		l3.135-16.712H599.95z"/>
	<path fill="#162342" d="M619.999,291.436l-1.823,9.737l7.643-0.003l-1.662,8.087l-7.511,0.014l-2.406,12.148
		c-0.098,0.441-0.219,1.215-0.364,2.318c-0.146,1.104-0.219,1.854-0.219,2.246c0,0.933,0.236,1.669,0.712,2.208
		c0.474,0.541,1.233,0.811,2.277,0.811h1.11c0.494,0,1.087-0.049,1.778-0.147l-1.164,8.319c-0.632,0.245-1.53,0.441-2.694,0.589
		s-2.328,0.221-3.492,0.221c-3.058,0-5.376-0.699-6.952-2.098c-1.577-1.399-2.365-3.301-2.365-5.706
		c0-1.129,0.048-2.122,0.146-2.981c0.097-0.858,0.315-2.073,0.655-3.645l2.698-14.283l-4.527-0.001l1.455-8.1l4.603,0.003
		l1.313-6.786L619.999,291.436z"/>
	<path fill="#162342" d="M623.06,337.174l6.708-36.001h10.498l-6.708,36.001H623.06z M631.007,290.938
		c0-1.864,0.619-3.397,1.858-4.601c1.239-1.202,2.758-1.804,4.557-1.804c1.651,0,3.001,0.504,4.046,1.509
		c1.045,1.007,1.567,2.345,1.567,4.013c0,1.964-0.646,3.522-1.939,4.675c-1.294,1.154-2.867,1.73-4.722,1.73
		c-1.596,0-2.89-0.503-3.881-1.51C631.502,293.946,631.007,292.608,631.007,290.938z"/>
	<path fill="#162342" d="M641.286,323.112c0-6.38,1.98-11.768,5.941-16.16s9.077-6.59,15.347-6.59c4.666,0,8.358,1.425,11.081,4.271
		c2.722,2.847,4.083,6.381,4.083,10.602c0,6.578-2.005,12.013-6.015,16.308s-9.076,6.441-15.2,6.441
		c-4.618,0-8.312-1.349-11.082-4.049C642.672,331.235,641.286,327.628,641.286,323.112z M666.803,315.308
		c0-1.914-0.45-3.533-1.349-4.858c-0.9-1.325-2.322-1.988-4.265-1.988c-2.771,0-4.983,1.559-6.635,4.675
		c-1.652,3.118-2.479,6.369-2.479,9.755c0,2.161,0.498,3.865,1.494,5.117s2.394,1.877,4.192,1.877c2.672,0,4.848-1.558,6.524-4.675
		C665.964,322.094,666.803,318.794,666.803,315.308z"/>
	<path fill="#162342" d="M678.757,337.174l4.521-24.295c0.34-1.718,0.656-3.461,0.947-5.228c0.292-1.767,0.607-3.927,0.948-6.479
		h9.259l-0.656,5.963c1.7-2.209,3.633-3.89,5.796-5.043c2.162-1.152,4.435-1.73,6.816-1.73c2.916,0,5.176,0.859,6.78,2.577
		c1.604,1.719,2.405,4.148,2.405,7.288c0,0.982-0.049,1.915-0.146,2.798c-0.098,0.884-0.244,1.964-0.438,3.239l-3.937,20.909
		h-10.498l3.718-19.952c0.242-1.373,0.364-2.698,0.364-3.976c0-1.423-0.255-2.503-0.766-3.239c-0.51-0.736-1.446-1.104-2.807-1.104
		c-1.749,0-3.487,1.117-5.212,3.351c-1.727,2.233-2.953,5.216-3.682,8.945l-2.917,15.976H678.757z"/>
	<path fill="#162342" d="M718.926,327.75c1.167,0.589,2.636,1.154,4.411,1.693c1.773,0.541,3.414,0.81,4.921,0.81
		c1.36,0,2.442-0.306,3.244-0.92c0.802-0.613,1.203-1.386,1.203-2.319c0-0.883-0.317-1.668-0.948-2.355
		c-0.632-0.687-1.944-1.521-3.937-2.503c-1.993-0.981-3.67-2.258-5.03-3.829c-1.361-1.57-2.041-3.41-2.041-5.521
		c0-3.729,1.445-6.736,4.337-9.019s6.671-3.424,11.337-3.424c2.089,0,3.888,0.16,5.395,0.479c1.506,0.32,2.745,0.773,3.719,1.362
		l-2.479,7.51c-0.979-0.442-2.055-0.811-3.228-1.104c-1.174-0.295-2.494-0.441-3.961-0.441c-3.081,0-4.621,1.056-4.621,3.165
		c0,1.375,1.318,2.688,3.959,3.939c2.641,1.251,4.706,2.676,6.197,4.27c1.491,1.596,2.237,3.522,2.237,5.779
		c0,4.025-1.508,7.142-4.521,9.351c-3.014,2.208-6.975,3.313-11.883,3.313c-2.14,0-4.205-0.271-6.197-0.81
		c-1.993-0.539-3.548-1.202-4.666-1.988L718.926,327.75z"/>
</g>
</svg>
